<?xml version="1.0" encoding="utf-8"?>
<!-- Generator: Adobe Illustrator 23.0.1, SVG Export Plug-In . SVG Version: 6.00 Build 0)  -->
<svg version="1.1" id="Layer_1" xmlns="http://www.w3.org/2000/svg" xmlns:xlink="http://www.w3.org/1999/xlink" x="0px" y="0px"
	 viewBox="0 0 1180.4 589.5" style="enable-background:new 0 0 1180.4 589.5;" xml:space="preserve">
<style type="text/css">
	.st0{fill:#212721;}
	.st1{fill:#00957A;}
</style>
<title>vy.logo.final_Logo Hero</title>
<g>
	<path class="st0" d="M833.8,354.2c0.2,0,0.4-0.2,0.4-0.4c0-0.2-0.1-0.3-0.3-0.4l0,0c-7.5-1-14.6-3.6-21-7.6
		c-14.1-9-25.2-26.2-34.6-54.8c-1.3-3.8-48.3-163.8-51.3-174.2c-10.7-36.5-30.9-52.8-49.5-59.7c-8.3-3-17.1-4.6-26-4.6h-13
		c-0.2,0-0.4,0.2-0.4,0.4c0,0.2,0.1,0.3,0.3,0.4l0,0c5.6,0.8,11.2,2.3,16.4,4.5c17.3,7.3,35.3,23.7,45.7,59
		c2.3,7.9,49.7,169.1,50.7,172.3c9.5,30,20.8,47.7,35.3,56.9c9.2,5.8,19.6,8.3,31.7,8.3H833.8z"/>
	<path class="st0" d="M875.4,354.2c0.2,0,0.4-0.1,0.4-0.3c0-0.2-0.1-0.4-0.3-0.4l0,0c-21.1-2.7-34.8-32.4-42.3-57.6
		c-7.9-26.5-36.5-123.2-53.5-179.1c-17.1-56.2-70.2-64.2-94.3-64.3l0,0c-0.2,0-0.4,0.1-0.4,0.3c0,0.2,0.1,0.4,0.3,0.4l0,0
		c22.5,3,54.4,16.7,68.2,63.5c12.1,41.2,50.5,171.9,52,176.3c9.2,27.3,20,43.8,33.8,52.7c9.2,6,19.7,8.5,32,8.5L875.4,354.2z"/>
	<path class="st0" d="M321.6,537.1h-6.5c-19.2,0-42.3-9.8-55-54.6L145.6,91.6c-6.8-23.5-16.9-35.2-34-38.2l0,0
		c-0.2,0-0.3-0.2-0.3-0.4c0-0.2,0.2-0.4,0.4-0.4h17.2c22.9,0,35.4,11.5,43.3,38.9c0,0,105.9,359.4,115.5,393.3
		c7.1,25.1,15.4,42.2,28.3,49.1c1.8,1,3.7,1.8,5.6,2.3l0,0c0.2,0,0.3,0.2,0.3,0.4C322,536.9,321.8,537.1,321.6,537.1z"/>
	<path class="st0" d="M282.9,106.2c-11-37.9-28.2-53.7-59.8-53.7h-15.4c-0.2,0-0.4,0.2-0.4,0.3c0,0,0,0,0,0c0,0.2,0.1,0.3,0.3,0.4
		l0,0c24.7,3.5,39.1,19.8,48.7,53c0,0,94.8,322.8,107.1,365c2.7-9.1,7.3-24.6,13-44C365.1,388.4,282.9,106.2,282.9,106.2z"/>
	<path class="st0" d="M330.5,537.1h11.3c14.1,0,24.2-3.7,31.8-9.9c12.3-10,17.9-26.6,23.1-44c0.8-2.6,101.1-342.9,104.6-356.1
		c12-44.9,38.7-64.4,67.2-71.4c4.7-1.1,9.5-2,14.3-2.5l0,0c0.2,0,0.4-0.2,0.3-0.4c0-0.2-0.2-0.4-0.4-0.3h-12.5
		c-37.6,0-79.5,14.9-95.4,74.6c-5.7,21.5-103.9,353.5-104.6,356.1c-5.2,17.5-11.1,35.8-23.4,45.8c-4.6,4-10.2,6.5-16.2,7.3l0,0
		c-0.2,0-0.3,0.2-0.3,0.4C330.1,536.9,330.3,537.1,330.5,537.1C330.5,537.1,330.5,537.1,330.5,537.1L330.5,537.1z"/>
	<path class="st0" d="M845.8,302.8l59-196.7c9.6-33.2,24-49.5,48.7-53l0,0c0.2,0,0.4-0.2,0.3-0.4c0-0.2-0.2-0.4-0.4-0.3H938
		c-31.6,0-48.8,15.8-59.8,53.7l-45.6,153.3C832.6,259.5,844.7,299.7,845.8,302.8z"/>
	<path class="st1" d="M1001.1,52.7h-16.4c-26.9,0-41.5,13.5-50.9,45.7c0,0-58.4,195.2-58.9,196.9c-4.3,13.8-9.7,27.2-15.1,35.8
		c5.1,7,10.6,11.3,15.9,12.4c10.1-8.7,18.6-24.8,26.1-49.3c0.4-1.3,58.6-195.8,58.6-195.8c8.1-27.9,20.1-41.8,40.7-45l0,0
		c0.2,0,0.3-0.2,0.3-0.4C1001.5,52.8,1001.3,52.7,1001.1,52.7z"/>
	<path class="st0" d="M881.5,364h-26.5c-12,39.6-27.9,92-33.8,111.8c-16.4,55.1,9.5,60.7,19.4,60.7h20.9c0.2,0,0.4-0.2,0.4-0.4
		c0-0.2-0.1-0.3-0.3-0.4l0,0c-11.3-2.7-26.7-14.5-13.1-60C848.5,475.8,872.5,394.7,881.5,364z"/>
	<path class="st0" d="M1036.1,53.1c0.2,0,0.3-0.2,0.3-0.4c0-0.2-0.2-0.3-0.4-0.3h-3.7c-22.9,0-35.4,11.5-43.3,38.9
		c0,0-45.1,151.9-59.3,198.9s-23.9,59.7-43.2,63l-1,0.2c-0.2,0-0.4,0.2-0.3,0.4c0,0.2,0.2,0.4,0.4,0.3h13.1
		c33.6,0,46.1-22.4,57.9-61.8c9.9-33,67.8-226.5,67.8-226.5C1025.9,60.4,1030.6,54.8,1036.1,53.1L1036.1,53.1z"/>
	<path class="st0" d="M908.1,363.3c-9.3,31.6-35.7,121.6-35.7,121.6c-14,46.8,8.1,51.6,16.5,51.6h20.4c0.2,0,0.4-0.2,0.4-0.4
		c0-0.2-0.1-0.3-0.3-0.4l0,0c-9.6-2.5-22.1-12.8-10.7-50.9c0,0,29-98.2,40-135.7C932.4,355.7,921.7,361.6,908.1,363.3z"/>
	<path class="st0" d="M958,536.6c0.2,0,0.4-0.2,0.4-0.4c0-0.2-0.1-0.3-0.3-0.4l0,0c-8.1-2.3-18.3-11.3-8.7-43.2
		c0,0,112-381.2,118.2-402.8s-8.8-35.1-22.4-37.1c-0.1,0-0.5-0.1-0.6,0.1s0.3,0.5,0.4,0.5c2.7,1.4,5.7,4.7,4.1,10.3l-126,429
		c-11.9,39.8,6.9,43.9,14,43.9H958z"/>
	<path class="st0" d="M780.7,354.2c0.2,0,0.4-0.1,0.4-0.3c0-0.2-0.1-0.4-0.3-0.4l0,0c-7.4-1-14.5-3.5-20.8-7.5
		c-14.8-9.4-26.3-27.6-36-58.6c-0.8-2.6-48.5-165-50.2-170.6c-10.1-34.3-26.3-50.8-42.3-58.4c-8.6-4-18-6-27.5-5.9h-14
		c-0.2,0-0.4,0.1-0.4,0.3c0,0.2,0.1,0.4,0.3,0.4l0,0c2.6,0.4,39,1.5,57.3,63.5s40.3,136.2,47.6,162.3c16,56.6,36.7,75.1,70,75.1
		H780.7z"/>
	<path class="st0" d="M612.1,73.8L612.1,73.8c-13.4,11.5-24.4,28.5-31,53.3C580.4,129.6,481,468,478.8,475.3
		c-8.4,28.2-15.4,56.2-47,61l0,0c-0.2,0-0.3,0.2-0.3,0.4c0,0.2,0.2,0.4,0.3,0.4c0,0,0,0,0,0h6.3c0,0,4.5-0.1,5.5-0.1
		c32.2-1.3,48.2-15,61.9-61.6c10-34.1,101.5-345.6,102.3-348.3c3.9-13,8.6-27.9,15.3-40.9C620,81.6,616.3,77.4,612.1,73.8z"/>
	<path class="st1" d="M597.2,65.1c-10.2-2.9-24.6-2.1-37.7,8.4c-13.1,10.5-24.8,28.3-30.8,50.9C528,127,424,480.6,423.3,483.2
		c-5.2,17.4-10.8,33.9-23.1,44c-6.2,5-13.7,8.1-21.5,9.2l0,0c-0.2,0-0.3,0.2-0.3,0.4c0,0.2,0.2,0.4,0.3,0.4c0,0,0,0,0,0h16.3
		c14.1,0,24.2-3.7,31.8-9.9c12.3-10,17.9-26.6,23.1-44c0.8-2.6,103.9-353.5,104.6-356.1c6.6-24.8,17.7-41.8,31-53.3
		c3.8-3.2,7.8-6.1,12.1-8.6C597.5,65.2,597.3,65.1,597.2,65.1z"/>
	<path class="st0" d="M351.2,506.8c-5-7.4-8.8-15.7-11.1-24.3c-4-13.9-112.6-384.1-112.6-384.1c-9.3-32.2-24-45.7-50.9-45.7h-16.4
		c-0.2,0-0.4,0.2-0.4,0.4c0,0.2,0.1,0.3,0.3,0.4c20.6,3.2,32.6,17,40.7,45l112.6,384c5.8,20.5,13.8,33.7,22.6,42
		C342.2,520.8,347.6,514.9,351.2,506.8z"/>
</g>
</svg>
